<svg xmlns="http://www.w3.org/2000/svg" viewBox="28 28 200 200" width="200" height="200" role="img" aria-labelledby="title desc">
  <title id="title">Opita Code symbol</title>
  <desc id="desc">Concepto 01: cuatro cintas curvas entrelazadas con diamante central</desc>
  <defs>
    <mask id="opita-code-center-cut" maskUnits="userSpaceOnUse">
      <rect x="0" y="0" width="256" height="256" fill="white" />
      <path d="M128 98 L158 128 L128 158 L98 128 Z" fill="black" />
    </mask>
  </defs>
  <g fill="none" stroke="#111111" stroke-width="18" stroke-linecap="round" stroke-linejoin="round" mask="url(#opita-code-center-cut)">
    <path d="M62 104 C78 58 108 55 128 90 C148 55 178 58 194 104" transform="rotate(0 128 128)" />
    <path d="M62 104 C78 58 108 55 128 90 C148 55 178 58 194 104" transform="rotate(90 128 128)" />
    <path d="M62 104 C78 58 108 55 128 90 C148 55 178 58 194 104" transform="rotate(180 128 128)" />
    <path d="M62 104 C78 58 108 55 128 90 C148 55 178 58 194 104" transform="rotate(270 128 128)" />
  </g>
</svg>
