<svg xmlns="http://www.w3.org/2000/svg" width="256" height="256" fill="none" viewBox="28 28 200 200"><defs><mask id="a" maskUnits="userSpaceOnUse"><path fill="#fff" d="M0 0h256v256H0z"/><path fill="#000" d="m128 98 30 30-30 30-30-30Z"/></mask></defs><g stroke="#fff" stroke-linecap="round" stroke-linejoin="round" stroke-width="18" mask="url(#a)"><path d="M62 104c16-46 46-49 66-14 20-35 50-32 66 14"/><path d="M152 62c46 16 49 46 14 66 35 20 32 50-14 66"/><path d="M194 152c-16 46-46 49-66 14-20 35-50 32-66-14"/><path d="M104 194c-46-16-49-46-14-66-35-20-32-50 14-66"/></g></svg>