<svg xmlns="http://www.w3.org/2000/svg" viewBox="0 0 700 256" width="700" height="256" role="img" aria-labelledby="title desc">
  <title id="title">Opita Code horizontal lockup</title>
  <desc id="desc">Horizontal lockup for Opita Code — Concepto 01</desc>
  <g transform="translate(0 0)"><defs>
    <mask id="opita-code-center-cut" maskUnits="userSpaceOnUse">
      <rect x="0" y="0" width="256" height="256" fill="white" />
      <path d="M128 98 L158 128 L128 158 L98 128 Z" fill="black" />
    </mask>
  </defs>
  <g fill="none" stroke="#FFFFFF" stroke-width="18" stroke-linecap="round" stroke-linejoin="round" mask="url(#opita-code-center-cut)">
    <path d="M62 104 C78 58 108 55 128 90 C148 55 178 58 194 104" transform="rotate(0 128 128)" />
    <path d="M62 104 C78 58 108 55 128 90 C148 55 178 58 194 104" transform="rotate(90 128 128)" />
    <path d="M62 104 C78 58 108 55 128 90 C148 55 178 58 194 104" transform="rotate(180 128 128)" />
    <path d="M62 104 C78 58 108 55 128 90 C148 55 178 58 194 104" transform="rotate(270 128 128)" />
  </g></g>
  <text x="270" y="154" text-anchor="start" fill="#FFFFFF" font-family="Inter, ui-sans-serif, system-ui, -apple-system, BlinkMacSystemFont, Segoe UI, Arial, sans-serif" font-size="56" font-weight="500" letter-spacing="-0.01em">Opita Code</text>
</svg>
