<svg xmlns="http://www.w3.org/2000/svg" viewBox="0 0 360 420" width="360" height="420" role="img" aria-labelledby="title desc">
  <title id="title">Opita Code stacked lockup</title>
  <desc id="desc">Concepto 01 apilado</desc>
  <defs>
    <mask id="cut">
      <rect width="220" height="220" fill="white"/>
      <path d="M110 72 L148 110 L110 148 L72 110 Z" fill="black"/>
    </mask>
  </defs>
  <g transform="translate(70 10)" fill="none" stroke="#111111" stroke-width="36" stroke-linecap="round" stroke-linejoin="round" mask="url(#cut)">
    <path d="M68 92 C82 62 98 58 110 74 C122 58 138 62 152 92"/>
    <path d="M68 92 C82 62 98 58 110 74 C122 58 138 62 152 92" transform="rotate(90 110 110)"/>
    <path d="M68 92 C82 62 98 58 110 74 C122 58 138 62 152 92" transform="rotate(180 110 110)"/>
    <path d="M68 92 C82 62 98 58 110 74 C122 58 138 62 152 92" transform="rotate(270 110 110)"/>
  </g>
  <text x="180" y="330" text-anchor="middle" fill="#111111" font-family="Inter, ui-sans-serif, system-ui, -apple-system, BlinkMacSystemFont, Segoe UI, Arial, sans-serif" font-size="56" font-weight="400" letter-spacing="-0.02em">Opita Code</text>
</svg>
