<svg xmlns="http://www.w3.org/2000/svg" viewBox="0 0 256 256" width="256" height="256" role="img" aria-labelledby="title desc">
  <title id="title">Opita Code symbol</title>
  <desc id="desc">Concepto 01: símbolo de cuatro cintas curvas con diamante central</desc>
  <defs>
    <mask id="cut">
      <rect width="256" height="256" fill="white"/>
      <path d="M128 88 L168 128 L128 168 L88 128 Z" fill="black"/>
    </mask>
  </defs>
  <g fill="none" stroke="#111111" stroke-width="42" stroke-linecap="round" stroke-linejoin="round" mask="url(#cut)">
    <path d="M82 106 C96 72 116 68 128 88 C140 68 160 72 174 106"/>
    <path d="M82 106 C96 72 116 68 128 88 C140 68 160 72 174 106" transform="rotate(90 128 128)"/>
    <path d="M82 106 C96 72 116 68 128 88 C140 68 160 72 174 106" transform="rotate(180 128 128)"/>
    <path d="M82 106 C96 72 116 68 128 88 C140 68 160 72 174 106" transform="rotate(270 128 128)"/>
  </g>
</svg>
