<svg xmlns="http://www.w3.org/2000/svg" width="256" height="256" fill="none" viewBox="28 28 200 200"><defs><linearGradient id="a" x1="0%" x2="100%" y1="0%" y2="100%"><stop offset="0%" stop-color="#00e5ff"/><stop offset="100%" stop-color="#d500f9"/></linearGradient><filter id="b" width="200%" height="200%" x="-50%" y="-50%"><feGaussianBlur result="blur1" stdDeviation="8"/><feGaussianBlur result="blur2" stdDeviation="16"/><feMerge><feMergeNode in="blur2"/><feMergeNode in="blur1"/><feMergeNode in="SourceGraphic"/></feMerge></filter></defs><defs><mask id="d" maskUnits="userSpaceOnUse"><path fill="#fff" d="M0 0h256v256H0z"/><path fill="#000" d="m128 98 30 30-30 30-30-30Z"/></mask></defs><g stroke="url(#a)" stroke-linecap="round" stroke-linejoin="round" stroke-width="18" filter="url(#b)" mask="url(#d)"><path d="M62 104c16-46 46-49 66-14 20-35 50-32 66 14"/><path d="M152 62c46 16 49 46 14 66 35 20 32 50-14 66"/><path d="M194 152c-16 46-46 49-66 14-20 35-50 32-66-14"/><path d="M104 194c-46-16-49-46-14-66-35-20-32-50 14-66"/></g></svg>